<svg xmlns="http://www.w3.org/2000/svg" viewBox="0 0 128 128" role="img" aria-labelledby="title">
  <title>Globe icon</title>
  <defs>
    <linearGradient id="ocean" x1="0%" y1="0%" x2="0%" y2="100%">
      <stop offset="0%" stop-color="#46b2ff"/>
      <stop offset="100%" stop-color="#0063bf"/>
    </linearGradient>
    <linearGradient id="land" x1="0%" y1="0%" x2="100%" y2="100%">
      <stop offset="0%" stop-color="#9be37a"/>
      <stop offset="100%" stop-color="#3f8f46"/>
    </linearGradient>
  </defs>
  <circle cx="64" cy="64" r="60" fill="url(#ocean)" stroke="#05305f" stroke-width="4"/>
  <path d="M29 35c8 1 17-9 26-6 6 2 5 9 10 12 5 2 13-4 19 0 6 4 7 12 11 18 5 7 13 13 13 21-1 10-13 16-22 20-9 3-19 5-29 4-9-1-18-5-24-12-6-6-10-14-10-23 0-12 7-34 6-34z" fill="url(#land)" opacity="0.9"/>
  <g fill="none" stroke="#0b4d7a" stroke-width="3" stroke-linecap="round" opacity="0.6">
    <ellipse cx="64" cy="64" rx="50" ry="18"/>
    <ellipse cx="64" cy="64" rx="25" ry="58"/>
    <ellipse cx="64" cy="64" rx="40" ry="58"/>
    <line x1="64" y1="8" x2="64" y2="120"/>
    <line x1="8" y1="64" x2="120" y2="64"/>
  </g>
</svg>
