<svg xmlns="http://www.w3.org/2000/svg" viewBox="0 0 128 128" role="img" aria-labelledby="title">
  <title>Globe icon</title>
  <defs>
    <linearGradient id="ocean" x1="0%" y1="0%" x2="0%" y2="100%">
      <stop offset="0%" stop-color="#46b2ff"/>
      <stop offset="100%" stop-color="#0063bf"/>
    </linearGradient>
    <linearGradient id="land" x1="0%" y1="0%" x2="100%" y2="100%">
      <stop offset="0%" stop-color="#9be37a"/>
      <stop offset="100%" stop-color="#3f8f46"/>
    </linearGradient>
  </defs>
  <circle cx="64" cy="64" r="60" fill="url(#ocean)" stroke="#05305f" stroke-width="4"/>
  <path d="M24 46c5-9 16-17 28-21 12-4 26-5 35 0 7 4 11 11 19 15 6 3 12 3 16 5 4 3 5 8 3 12-2 3-6 4-9 6-4 2-7 5-10 7-5 4-10 10-16 12-6 2-13 1-19-1-8-3-17-6-23-12-6-5-11-13-11-23 0-1 0-2 0-3 0-1 1-2 1-2z" fill="url(#land)" opacity="0.95"/>
  <path d="M35 54c7-8 21-14 31-15 11-1 21 2 28 7 5 4 6 9 3 13-4 5-12 6-18 8-7 3-13 7-19 8-7 1-13-2-18-6-6-4-12-10-7-15z" fill="url(#land)" opacity="0.85"/>
  <g fill="none" stroke="#0b4d7a" stroke-width="3" stroke-linecap="round" opacity="0.6">
    <ellipse cx="64" cy="64" rx="50" ry="18"/>
    <ellipse cx="64" cy="64" rx="25" ry="58"/>
    <ellipse cx="64" cy="64" rx="40" ry="58"/>
    <line x1="64" y1="8" x2="64" y2="120"/>
    <line x1="8" y1="64" x2="120" y2="64"/>
  </g>
</svg>
